<?xml version="1.0" encoding="UTF-8" standalone="no"?>
<svg width="87px" height="36px" viewBox="0 0 87 36" version="1.1" xmlns="http://www.w3.org/2000/svg" xmlns:xlink="http://www.w3.org/1999/xlink">
    <!-- Generator: sketchtool 39 (31667) - http://www.bohemiancoding.com/sketch -->
    <title>7FE4CF8E-D8F3-43E8-883C-5CEF71B0AACF</title>
    <desc>Created with sketchtool.</desc>
    <defs>
        <linearGradient x1="0%" y1="50%" x2="100%" y2="50%" id="linearGradient-1">
            <stop stop-color="#6001A5" offset="0%"></stop>
            <stop stop-color="#6001A5" offset="33.4402902%"></stop>
            <stop stop-color="#DE0877" offset="93.2362318%"></stop>
            <stop stop-color="#ED0577" offset="100%"></stop>
        </linearGradient>
        <path d="M194.645239,93 L194.648891,93.0054101 C191.380339,93.0054101 190.859064,95.2114261 190.799139,96.2917118 L190.799139,120.208613 L193.111696,120.207314 C194.963976,120.245185 195.39311,119.054101 195.413085,118.382818 L195.413085,118.297555 L195.413085,118.201472 C196.864581,119.734257 198.859046,120.61069 201.107384,120.61069 C206.007419,120.61069 210,116.368535 210,110.809781 C210,105.214456 206.007419,100.972517 201.107384,100.972517 C198.965793,100.972517 197.042206,101.776888 195.626578,103.166631 L195.626578,93 L194.645239,93 L194.645239,93 Z M195.626578,110.846354 C195.626578,107.847652 197.768169,105.434105 200.417504,105.434105 C203.067269,105.434105 205.208859,107.774508 205.208859,110.846354 C205.208859,113.845272 203.067269,116.149102 200.417504,116.149102 C197.768169,116.149102 195.626578,113.772127 195.626578,110.846354 L195.626578,110.846354 Z M170.410105,110.809781 C170.410105,116.441679 174.62069,120.647479 179.810896,120.647479 C185.001316,120.647479 189.247984,116.441679 189.247984,110.809781 C189.247984,105.177884 185.001316,100.899156 179.810896,100.899156 C174.62069,100.899156 170.410105,105.177884 170.410105,110.809781 L170.410105,110.809781 Z M175.201246,110.846354 C175.201246,107.591647 177.27024,105.324389 179.810896,105.324389 C182.351766,105.324389 184.420545,107.591647 184.420545,110.846354 C184.420545,114.027916 182.351766,116.222246 179.810896,116.222246 C177.27024,116.222246 175.201246,114.027916 175.201246,110.846354 L175.201246,110.846354 Z M137.373422,103.568708 C136.03039,101.923177 133.961611,100.899156 131.420741,100.899156 C126.302917,100.899156 123,104.519585 123,109.310322 L123,120.208396 L124.561035,120.208396 C125.622702,120.142826 127.719403,119.612205 127.791141,116.490154 L127.791141,109.200822 C127.791141,107.079853 129.279365,105.616966 131.420741,105.616966 C134.578679,105.616966 134.905363,108.140229 134.905363,109.200822 L134.905363,120.208396 L136.467901,120.208396 C137.525702,120.143043 139.609517,119.615235 139.696503,116.524778 L139.696503,109.200822 C139.696503,107.079853 141.220811,105.616966 143.326103,105.616966 C146.483827,105.616966 146.847023,108.140229 146.847023,109.200822 L146.847023,120.208396 L148.405481,120.208396 C149.473162,120.142393 151.587905,119.608093 151.637949,116.440814 L151.637949,109.310322 C151.637949,104.373296 148.552822,100.899156 143.326103,100.899156 C140.894342,100.899156 138.78905,101.923177 137.373422,103.568708 L137.373422,103.568708 Z M165.449072,103.462238 L161.420837,114.709154 L157.038426,103.064055 C156.375824,101.220515 154.644037,101.321359 154.644037,101.321359 L150.912416,101.321359 L158.339146,119.61913 C158.332702,119.599221 158.328407,119.581692 158.321533,119.561134 C158.321963,119.562432 158.335494,119.599437 158.34924,119.636659 C158.361912,119.6715 158.374585,119.706341 158.376732,119.711534 L158.339146,119.61913 C158.582923,120.363125 158.511401,120.77797 158.288887,121.495564 L158.126297,121.9591 C157.263732,124.122052 156.048281,124.708505 153.460804,124.562 L153.460804,124.577364 L155.255951,129 C158.580346,128.926639 161.081052,127.833369 162.75227,123.645531 L171.690205,101.323307 L171.69085,101.321575 L171.69085,101.321359 L168.347984,101.319195 L168.334238,101.319195 C168.153821,101.319195 166.250638,101.368968 165.449072,103.462238 L165.449072,103.462238 Z" id="path-2"></path>
    </defs>
    <g id="Page-1" stroke="none" stroke-width="1" fill="none" fill-rule="evenodd">
        <g id="MYOB---IDAM" transform="translate(-123.000000, -93.000000)">
            <mask id="mask-3" fill="white">
                <use xlink:href="#path-2"></use>
            </mask>
            <use id="Clip-2" fill="url(#linearGradient-1)" xlink:href="#path-2"></use>
        </g>
    </g>
</svg>